<svg width="24" height="25" viewBox="0 0 24 25" fill="none" xmlns="http://www.w3.org/2000/svg">
<g id="coupon">
<path id="secondary" d="M13 5.79163V7.29163M13 10.7916V14.7916M13 18.2916V19.7916" stroke="white" stroke-width="2" stroke-linecap="round" stroke-linejoin="round"/>
<path id="primary" d="M21 6.79163V18.7916C21 19.0568 20.8946 19.3112 20.7071 19.4987C20.5196 19.6863 20.2652 19.7916 20 19.7916H4C3.73478 19.7916 3.48043 19.6863 3.29289 19.4987C3.10536 19.3112 3 19.0568 3 18.7916V15.7916C3.79565 15.7916 4.55871 15.4756 5.12132 14.9129C5.68393 14.3503 6 13.5873 6 12.7916C6 11.996 5.68393 11.2329 5.12132 10.6703C4.55871 10.1077 3.79565 9.79163 3 9.79163V6.79163C3 6.52641 3.10536 6.27206 3.29289 6.08452C3.48043 5.89698 3.73478 5.79163 4 5.79163H20C20.2652 5.79163 20.5196 5.89698 20.7071 6.08452C20.8946 6.27206 21 6.52641 21 6.79163Z" stroke="white" stroke-width="2" stroke-linecap="round" stroke-linejoin="round"/>
</g>
</svg>
