<svg width="87" height="69" viewBox="0 0 87 69" fill="none" xmlns="http://www.w3.org/2000/svg">
<g id="primary">
<path id="primary_2" d="M47.75 4V10.5625M47.75 25.875V43.375M47.75 58.6875V65.25M82.75 8.375V60.875C82.75 62.0353 82.2891 63.1481 81.4686 63.9686C80.6481 64.7891 79.5353 65.25 78.375 65.25H8.375C7.21468 65.25 6.10188 64.7891 5.28141 63.9686C4.46094 63.1481 4 62.0353 4 60.875V47.75C7.48097 47.75 10.8194 46.3672 13.2808 43.9058C15.7422 41.4444 17.125 38.106 17.125 34.625C17.125 31.144 15.7422 27.8056 13.2808 25.3442C10.8194 22.8828 7.48097 21.5 4 21.5V8.375C4 7.21468 4.46094 6.10188 5.28141 5.28141C6.10188 4.46094 7.21468 4 8.375 4H78.375C79.5353 4 80.6481 4.46094 81.4686 5.28141C82.2891 6.10188 82.75 7.21468 82.75 8.375Z" stroke="#008573" stroke-width="7" stroke-linecap="round" stroke-linejoin="round"/>
</g>
</svg>
