<svg width="80" height="16" viewBox="0 0 80 16" fill="none" xmlns="http://www.w3.org/2000/svg">
<path d="M4.84 15V14.8L6.06 14.54V1.14H4.08C3.72 1.14 3.4 1.22 3.12 1.38C2.85333 1.52667 2.63333 1.77333 2.46 2.12C2.28667 2.46667 2.15333 2.93333 2.06 3.52L1.64 6.16H1.3L0.72 0.84H13.72L13.14 6.16H12.8L12.38 3.6C12.3 2.98667 12.1733 2.50667 12 2.16C11.8267 1.8 11.6 1.54 11.32 1.38C11.0533 1.22 10.7333 1.14 10.36 1.14H8.36V14.54L9.6 14.8V15H4.84ZM15.2678 15V14.8L16.5078 14.54L21.8678 0.84H23.3878L28.6678 14.54L29.8878 14.8V15H24.7878V14.84L26.2078 14.56L21.6678 2.7H21.4478L18.9678 9.3C18.7278 9.9 18.5411 10.4733 18.4078 11.02C18.2878 11.5667 18.2278 12.0467 18.2278 12.46C18.2278 12.9133 18.3078 13.32 18.4678 13.68C18.6411 14.04 18.9145 14.32 19.2878 14.52C19.6611 14.7067 20.1478 14.8 20.7478 14.8V15H15.2678ZM18.7078 9.24V9.04L24.2878 8.82V9.24H18.7078ZM39.8645 0.84C41.1979 0.84 42.3512 1.10667 43.3245 1.64C44.3112 2.16 45.0645 2.94 45.5845 3.98C46.1179 5.00667 46.3845 6.28667 46.3845 7.82C46.3845 9.39333 46.1245 10.7133 45.6045 11.78C45.0979 12.8333 44.3579 13.6333 43.3845 14.18C42.4245 14.7267 41.2645 15 39.9045 15H33.2245V14.8L34.4445 14.54V1.26L33.2245 1.04V0.84H39.8645ZM39.3245 1.16C38.8712 1.16 38.4045 1.17333 37.9245 1.2C37.4579 1.22667 37.0645 1.26 36.7445 1.3V14.3L37.1445 14.7H39.3845C40.9579 14.7 42.1245 14.1067 42.8845 12.92C43.6579 11.7333 44.0445 9.98667 44.0445 7.68C44.0445 6.28 43.8712 5.1 43.5245 4.14C43.1779 3.16667 42.6512 2.42667 41.9445 1.92C41.2512 1.41333 40.3779 1.16 39.3245 1.16ZM49.4436 15V14.8L50.6836 14.54L56.0436 0.84H57.5636L62.8436 14.54L64.0636 14.8V15H58.9636V14.84L60.3836 14.56L55.8436 2.7H55.6236L53.1436 9.3C52.9036 9.9 52.7169 10.4733 52.5836 11.02C52.4636 11.5667 52.4036 12.0467 52.4036 12.46C52.4036 12.9133 52.4836 13.32 52.6436 13.68C52.8169 14.04 53.0903 14.32 53.4636 14.52C53.8369 14.7067 54.3236 14.8 54.9236 14.8V15H49.4436ZM52.8836 9.24V9.04L58.4636 8.82V9.24H52.8836ZM73.1409 0.539999C74.1009 0.539999 74.9743 0.693332 75.7609 0.999999C76.5476 1.30667 77.2276 1.76667 77.8009 2.38C78.3876 2.99333 78.8343 3.76 79.1409 4.68C79.4609 5.58667 79.6209 6.65333 79.6209 7.88C79.6209 9.08 79.4676 10.1467 79.1609 11.08C78.8543 12 78.4143 12.7733 77.8409 13.4C77.2676 14.0267 76.5809 14.5 75.7809 14.82C74.9943 15.14 74.1143 15.3 73.1409 15.3C72.1676 15.3 71.2809 15.14 70.4809 14.82C69.6809 14.4867 68.9943 14.0067 68.4209 13.38C67.8476 12.7533 67.4009 11.98 67.0809 11.06C66.7743 10.1267 66.6209 9.06 66.6209 7.86C66.6209 6.72667 66.7743 5.71333 67.0809 4.82C67.3876 3.91333 67.8209 3.14667 68.3809 2.52C68.9543 1.88 69.6409 1.39333 70.4409 1.06C71.2543 0.713332 72.1543 0.539999 73.1409 0.539999ZM73.1409 0.799999C72.4743 0.799999 71.8809 0.946666 71.3609 1.24C70.8409 1.53333 70.4009 1.97333 70.0409 2.56C69.6943 3.14667 69.4276 3.88 69.2409 4.76C69.0676 5.64 68.9809 6.66667 68.9809 7.84C68.9809 9.02667 69.0676 10.0667 69.2409 10.96C69.4276 11.8533 69.6943 12.6 70.0409 13.2C70.4009 13.8 70.8409 14.2533 71.3609 14.56C71.8809 14.8667 72.4743 15.02 73.1409 15.02C73.8209 15.02 74.4143 14.8733 74.9209 14.58C75.4409 14.2867 75.8743 13.84 76.2209 13.24C76.5676 12.64 76.8276 11.8933 77.0009 11C77.1743 10.0933 77.2609 9.03333 77.2609 7.82C77.2609 6.64667 77.1743 5.62 77.0009 4.74C76.8276 3.86 76.5676 3.12667 76.2209 2.54C75.8743 1.95333 75.4409 1.52 74.9209 1.24C74.4143 0.946666 73.8209 0.799999 73.1409 0.799999Z" fill="white"/>
</svg>
